<svg width="1904" height="978" viewBox="0 0 1904 978" fill="none" xmlns="http://www.w3.org/2000/svg">
<rect y="6" width="1904" height="966" fill="#FEFEFE"/>
<path d="M1235 6H1904V972H669L800.5 653.5L899 575L974.5 407.5L1083.5 375.5L1235 6Z" fill="#FB4444"/>
<path d="M669 972H0L0 6L1235 6L1082.5 374L981.5 408L900.5 571.5L799.5 651L669 972Z" fill="#3A61EB"/>
<path d="M1235 6L1085.3 369.635C1084.16 372.399 1081.84 374.509 1078.99 375.387L978.793 406.181C976.062 407.02 973.821 408.987 972.634 411.585L899.005 572.8C898.344 574.246 897.349 575.513 896.101 576.498L803.057 649.878C801.708 650.941 800.656 652.334 800.003 653.922L669 972" stroke="#FEFEFE" stroke-width="12" stroke-linecap="round"/>
</svg>
